<?xml version="1.0" encoding="UTF-8"?>
<!DOCTYPE svg
PUBLIC "-//W3C//DTD SVG 1.1//EN"
       "http://www.w3.org/Graphics/SVG/1.1/DTD/svg11.dtd">
<svg viewBox="111 -14 1088 721" width="977px" height="735px" xmlns="http://www.w3.org/2000/svg" version="1.1">
   <line x1="874" y1="525" x2="884" y2="525" style="stroke:#b0b;stroke-width:1;"/>
   <line x1="922" y1="479" x2="932" y2="479" style="stroke:#b0b;stroke-width:1;"/>
   <line x1="884" y1="525" x2="922" y2="479" style="stroke:#b0b;stroke-width:1;"/>
   <line x1="881,5" y1="525" x2="877,96446609407" y2="528,53553390593" style="stroke:#b0b;stroke-width:2;"/>
   <line x1="881,5" y1="525" x2="877,96446609407" y2="521,46446609407" style="stroke:#b0b;stroke-width:2;"/>
   <line x1="927" y1="479" x2="923,46446609407" y2="482,53553390593" style="stroke:#b0b;stroke-width:2;"/>
   <line x1="927" y1="479" x2="923,46446609407" y2="475,46446609407" style="stroke:#b0b;stroke-width:2;"/>
   <line x1="874" y1="565" x2="884" y2="565" style="stroke:#bbb;stroke-width:1;"/>
   <line x1="962" y1="359" x2="972" y2="359" style="stroke:#bbb;stroke-width:1;"/>
   <line x1="884" y1="565" x2="962" y2="359" style="stroke:#bbb;stroke-width:1;"/>
   <line x1="881,5" y1="565" x2="877,96446609407" y2="568,53553390593" style="stroke:#bbb;stroke-width:2;"/>
   <line x1="881,5" y1="565" x2="877,96446609407" y2="561,46446609407" style="stroke:#bbb;stroke-width:2;"/>
   <line x1="967" y1="359" x2="963,46446609407" y2="362,53553390593" style="stroke:#bbb;stroke-width:2;"/>
   <line x1="967" y1="359" x2="963,46446609407" y2="355,46446609407" style="stroke:#bbb;stroke-width:2;"/>
   <line x1="128" y1="170" x2="118" y2="170" style="stroke:#cb0;stroke-width:1;"/>
   <line x1="120" y1="31" x2="130" y2="31" style="stroke:#cb0;stroke-width:1;"/>
   <line x1="118" y1="170" x2="120" y2="31" style="stroke:#cb0;stroke-width:1;"/>
   <line x1="120,5" y1="170" x2="124,03553390593" y2="173,53553390593" style="stroke:#cb0;stroke-width:2;"/>
   <line x1="120,5" y1="170" x2="124,03553390593" y2="166,46446609407" style="stroke:#cb0;stroke-width:2;"/>
   <line x1="125" y1="31" x2="121,46446609407" y2="34,535533905933" style="stroke:#cb0;stroke-width:2;"/>
   <line x1="125" y1="31" x2="121,46446609407" y2="27,464466094067" style="stroke:#cb0;stroke-width:2;"/>
   <line x1="126" y1="554" x2="116" y2="554" style="stroke:#b0b;stroke-width:1;"/>
   <line x1="119" y1="442" x2="129" y2="442" style="stroke:#b0b;stroke-width:1;"/>
   <line x1="116" y1="554" x2="119" y2="442" style="stroke:#b0b;stroke-width:1;"/>
   <line x1="118,5" y1="554" x2="122,03553390593" y2="557,53553390593" style="stroke:#b0b;stroke-width:2;"/>
   <line x1="118,5" y1="554" x2="122,03553390593" y2="550,46446609407" style="stroke:#b0b;stroke-width:2;"/>
   <line x1="124" y1="442" x2="120,46446609407" y2="445,53553390593" style="stroke:#b0b;stroke-width:2;"/>
   <line x1="124" y1="442" x2="120,46446609407" y2="438,46446609407" style="stroke:#b0b;stroke-width:2;"/>
   <line x1="242" y1="614" x2="252" y2="614" style="stroke:#cb0;stroke-width:1;"/>
   <line x1="689" y1="226" x2="699" y2="226" style="stroke:#cb0;stroke-width:1;"/>
   <line x1="252" y1="614" x2="689" y2="226" style="stroke:#cb0;stroke-width:1;"/>
   <line x1="249,5" y1="614" x2="245,96446609407" y2="617,53553390593" style="stroke:#cb0;stroke-width:2;"/>
   <line x1="249,5" y1="614" x2="245,96446609407" y2="610,46446609407" style="stroke:#cb0;stroke-width:2;"/>
   <line x1="694" y1="226" x2="690,46446609407" y2="229,53553390593" style="stroke:#cb0;stroke-width:2;"/>
   <line x1="694" y1="226" x2="690,46446609407" y2="222,46446609407" style="stroke:#cb0;stroke-width:2;"/>
   <line x1="847" y1="266" x2="857" y2="266" style="stroke:#0bf;stroke-width:1;"/>
   <line x1="962" y1="359" x2="972" y2="359" style="stroke:#0bf;stroke-width:1;"/>
   <line x1="857" y1="266" x2="962" y2="359" style="stroke:#0bf;stroke-width:1;"/>
   <line x1="854,5" y1="266" x2="850,96446609407" y2="269,53553390593" style="stroke:#0bf;stroke-width:2;"/>
   <line x1="854,5" y1="266" x2="850,96446609407" y2="262,46446609407" style="stroke:#0bf;stroke-width:2;"/>
   <line x1="967" y1="359" x2="963,46446609407" y2="362,53553390593" style="stroke:#0bf;stroke-width:2;"/>
   <line x1="967" y1="359" x2="963,46446609407" y2="355,46446609407" style="stroke:#0bf;stroke-width:2;"/>
   <line x1="847" y1="346" x2="857" y2="346" style="stroke:#bbb;stroke-width:1;"/>
   <line x1="924" y1="229" x2="934" y2="229" style="stroke:#bbb;stroke-width:1;"/>
   <line x1="857" y1="346" x2="924" y2="229" style="stroke:#bbb;stroke-width:1;"/>
   <line x1="854,5" y1="346" x2="850,96446609407" y2="349,53553390593" style="stroke:#bbb;stroke-width:2;"/>
   <line x1="854,5" y1="346" x2="850,96446609407" y2="342,46446609407" style="stroke:#bbb;stroke-width:2;"/>
   <line x1="929" y1="229" x2="925,46446609407" y2="232,53553390593" style="stroke:#bbb;stroke-width:2;"/>
   <line x1="929" y1="229" x2="925,46446609407" y2="225,46446609407" style="stroke:#bbb;stroke-width:2;"/>
   <line x1="552" y1="52" x2="562" y2="52" style="stroke:#bbb;stroke-width:1;"/>
   <line x1="689" y1="226" x2="699" y2="226" style="stroke:#bbb;stroke-width:1;"/>
   <line x1="562" y1="52" x2="689" y2="226" style="stroke:#bbb;stroke-width:1;"/>
   <line x1="559,5" y1="52" x2="555,96446609407" y2="55,535533905933" style="stroke:#bbb;stroke-width:2;"/>
   <line x1="559,5" y1="52" x2="555,96446609407" y2="48,464466094067" style="stroke:#bbb;stroke-width:2;"/>
   <line x1="694" y1="226" x2="690,46446609407" y2="229,53553390593" style="stroke:#bbb;stroke-width:2;"/>
   <line x1="694" y1="226" x2="690,46446609407" y2="222,46446609407" style="stroke:#bbb;stroke-width:2;"/>
   <line x1="369" y1="92" x2="359" y2="92" style="stroke:#0b0;stroke-width:1;"/>
   <line x1="256" y1="130" x2="246" y2="130" style="stroke:#0b0;stroke-width:1;"/>
   <line x1="359" y1="92" x2="256" y2="130" style="stroke:#0b0;stroke-width:1;"/>
   <line x1="361,5" y1="92" x2="365,03553390593" y2="95,535533905933" style="stroke:#0b0;stroke-width:2;"/>
   <line x1="361,5" y1="92" x2="365,03553390593" y2="88,464466094067" style="stroke:#0b0;stroke-width:2;"/>
   <line x1="251" y1="130" x2="254,53553390593" y2="133,53553390593" style="stroke:#0b0;stroke-width:2;"/>
   <line x1="251" y1="130" x2="254,53553390593" y2="126,46446609407" style="stroke:#0b0;stroke-width:2;"/>
   <line x1="369" y1="112" x2="359" y2="112" style="stroke:#cb0;stroke-width:1;"/>
   <line x1="262" y1="253" x2="252" y2="253" style="stroke:#cb0;stroke-width:1;"/>
   <line x1="359" y1="112" x2="262" y2="253" style="stroke:#cb0;stroke-width:1;"/>
   <line x1="361,5" y1="112" x2="365,03553390593" y2="115,53553390593" style="stroke:#cb0;stroke-width:2;"/>
   <line x1="361,5" y1="112" x2="365,03553390593" y2="108,46446609407" style="stroke:#cb0;stroke-width:2;"/>
   <line x1="257" y1="253" x2="260,53553390593" y2="256,53553390593" style="stroke:#cb0;stroke-width:2;"/>
   <line x1="257" y1="253" x2="260,53553390593" y2="249,46446609407" style="stroke:#cb0;stroke-width:2;"/>
   <line x1="552" y1="312" x2="562" y2="312" style="stroke:#b0b;stroke-width:1;"/>
   <line x1="558" y1="486" x2="548" y2="486" style="stroke:#b0b;stroke-width:1;"/>
   <line x1="562" y1="312" x2="558" y2="486" style="stroke:#b0b;stroke-width:1;"/>
   <line x1="559,5" y1="312" x2="555,96446609407" y2="315,53553390593" style="stroke:#b0b;stroke-width:2;"/>
   <line x1="559,5" y1="312" x2="555,96446609407" y2="308,46446609407" style="stroke:#b0b;stroke-width:2;"/>
   <line x1="553" y1="486" x2="556,53553390593" y2="489,53553390593" style="stroke:#b0b;stroke-width:2;"/>
   <line x1="553" y1="486" x2="556,53553390593" y2="482,46446609407" style="stroke:#b0b;stroke-width:2;"/>
   <line x1="369" y1="292" x2="359" y2="292" style="stroke:#b0b;stroke-width:1;"/>
   <line x1="208" y1="348" x2="198" y2="348" style="stroke:#b0b;stroke-width:1;"/>
   <line x1="359" y1="292" x2="208" y2="348" style="stroke:#b0b;stroke-width:1;"/>
   <line x1="361,5" y1="292" x2="365,03553390593" y2="295,53553390593" style="stroke:#b0b;stroke-width:2;"/>
   <line x1="361,5" y1="292" x2="365,03553390593" y2="288,46446609407" style="stroke:#b0b;stroke-width:2;"/>
   <line x1="203" y1="348" x2="206,53553390593" y2="351,53553390593" style="stroke:#b0b;stroke-width:2;"/>
   <line x1="203" y1="348" x2="206,53553390593" y2="344,46446609407" style="stroke:#b0b;stroke-width:2;"/>
   <line x1="369" y1="72" x2="359" y2="72" style="stroke:#b0b;stroke-width:1;"/>
   <line x1="243" y1="31" x2="233" y2="31" style="stroke:#b0b;stroke-width:1;"/>
   <line x1="359" y1="72" x2="243" y2="31" style="stroke:#b0b;stroke-width:1;"/>
   <line x1="361,5" y1="72" x2="365,03553390593" y2="75,535533905933" style="stroke:#b0b;stroke-width:2;"/>
   <line x1="361,5" y1="72" x2="365,03553390593" y2="68,464466094067" style="stroke:#b0b;stroke-width:2;"/>
   <line x1="238" y1="31" x2="241,53553390593" y2="34,535533905933" style="stroke:#b0b;stroke-width:2;"/>
   <line x1="238" y1="31" x2="241,53553390593" y2="27,464466094067" style="stroke:#b0b;stroke-width:2;"/>
   <line x1="369" y1="212" x2="359" y2="212" style="stroke:#0bf;stroke-width:1;"/>
   <line x1="275" y1="442" x2="265" y2="442" style="stroke:#0bf;stroke-width:1;"/>
   <line x1="359" y1="212" x2="275" y2="442" style="stroke:#0bf;stroke-width:1;"/>
   <line x1="361,5" y1="212" x2="365,03553390593" y2="215,53553390593" style="stroke:#0bf;stroke-width:2;"/>
   <line x1="361,5" y1="212" x2="365,03553390593" y2="208,46446609407" style="stroke:#0bf;stroke-width:2;"/>
   <line x1="270" y1="442" x2="273,53553390593" y2="445,53553390593" style="stroke:#0bf;stroke-width:2;"/>
   <line x1="270" y1="442" x2="273,53553390593" y2="438,46446609407" style="stroke:#0bf;stroke-width:2;"/>
   <line x1="1067" y1="379" x2="1077" y2="379" style="stroke:#b0b;stroke-width:1;"/>
   <line x1="1083" y1="479" x2="1073" y2="479" style="stroke:#b0b;stroke-width:1;"/>
   <line x1="1077" y1="379" x2="1083" y2="479" style="stroke:#b0b;stroke-width:1;"/>
   <line x1="1074,5" y1="379" x2="1070,9644660941" y2="382,53553390593" style="stroke:#b0b;stroke-width:2;"/>
   <line x1="1074,5" y1="379" x2="1070,9644660941" y2="375,46446609407" style="stroke:#b0b;stroke-width:2;"/>
   <line x1="1078" y1="479" x2="1081,5355339059" y2="482,53553390593" style="stroke:#b0b;stroke-width:2;"/>
   <line x1="1078" y1="479" x2="1081,5355339059" y2="475,46446609407" style="stroke:#b0b;stroke-width:2;"/>
   <line x1="934" y1="269" x2="924" y2="269" style="stroke:#c00;stroke-width:1;"/>
   <line x1="857" y1="226" x2="847" y2="226" style="stroke:#c00;stroke-width:1;"/>
   <line x1="924" y1="269" x2="857" y2="226" style="stroke:#c00;stroke-width:1;"/>
   <line x1="926,5" y1="269" x2="930,03553390593" y2="272,53553390593" style="stroke:#c00;stroke-width:2;"/>
   <line x1="926,5" y1="269" x2="930,03553390593" y2="265,46446609407" style="stroke:#c00;stroke-width:2;"/>
   <line x1="852" y1="226" x2="855,53553390593" y2="229,53553390593" style="stroke:#c00;stroke-width:2;"/>
   <line x1="852" y1="226" x2="855,53553390593" y2="222,46446609407" style="stroke:#c00;stroke-width:2;"/>
   <line x1="934" y1="249" x2="924" y2="249" style="stroke:#c00;stroke-width:1;"/>
   <line x1="562" y1="32" x2="552" y2="32" style="stroke:#c00;stroke-width:1;"/>
   <line x1="924" y1="249" x2="562" y2="32" style="stroke:#c00;stroke-width:1;"/>
   <line x1="926,5" y1="249" x2="930,03553390593" y2="252,53553390593" style="stroke:#c00;stroke-width:2;"/>
   <line x1="926,5" y1="249" x2="930,03553390593" y2="245,46446609407" style="stroke:#c00;stroke-width:2;"/>
   <line x1="557" y1="32" x2="560,53553390593" y2="35,535533905933" style="stroke:#c00;stroke-width:2;"/>
   <line x1="557" y1="32" x2="560,53553390593" y2="28,464466094067" style="stroke:#c00;stroke-width:2;"/>
   <line x1="714" y1="127" x2="724" y2="127" style="stroke:#b0b;stroke-width:1;"/>
   <line x1="815" y1="47" x2="825" y2="47" style="stroke:#b0b;stroke-width:1;"/>
   <line x1="724" y1="127" x2="815" y2="47" style="stroke:#b0b;stroke-width:1;"/>
   <line x1="721,5" y1="127" x2="717,96446609407" y2="130,53553390593" style="stroke:#b0b;stroke-width:2;"/>
   <line x1="721,5" y1="127" x2="717,96446609407" y2="123,46446609407" style="stroke:#b0b;stroke-width:2;"/>
   <line x1="820" y1="47" x2="816,46446609407" y2="50,535533905933" style="stroke:#b0b;stroke-width:2;"/>
   <line x1="820" y1="47" x2="816,46446609407" y2="43,464466094067" style="stroke:#b0b;stroke-width:2;"/>
   <rect width="103" height="20" x="130" y="1" style="fill:#007;stroke:black;"/>
   <text width="103" height="20" x="135" y="15" style="fill:#fff;" font-family="Arial" font-size="16px"> bidang</text>
   <rect width="103" height="20" x="130" y="21" style="fill:#aea;stroke:black;"/>
   <text width="103" height="20" x="135" y="35" style="fill:black;" font-family="Arial" font-size="16px">id_bidang</text>
   <rect width="103" height="20" x="130" y="41" style="fill:none;stroke:black;"/>
   <text width="103" height="20" x="135" y="55" style="fill:black;" font-family="Arial" font-size="16px">nama_bidang</text>
   <rect width="141" height="20" x="932" y="449" style="fill:#007;stroke:black;"/>
   <text width="141" height="20" x="937" y="463" style="fill:#fff;" font-family="Arial" font-size="16px"> departemen</text>
   <rect width="141" height="20" x="932" y="469" style="fill:#aea;stroke:black;"/>
   <text width="141" height="20" x="937" y="483" style="fill:black;" font-family="Arial" font-size="16px">id_departemen</text>
   <rect width="141" height="20" x="932" y="489" style="fill:none;stroke:black;"/>
   <text width="141" height="20" x="937" y="503" style="fill:black;" font-family="Arial" font-size="16px">nama_departemen</text>
   <rect width="162" height="20" x="712" y="435" style="fill:#007;stroke:black;"/>
   <text width="162" height="20" x="717" y="449" style="fill:#fff;" font-family="Arial" font-size="16px"> dosen</text>
   <rect width="162" height="20" x="712" y="455" style="fill:#aea;stroke:black;"/>
   <text width="162" height="20" x="717" y="469" style="fill:black;" font-family="Arial" font-size="16px">id_dosen</text>
   <rect width="162" height="20" x="712" y="475" style="fill:none;stroke:black;"/>
   <text width="162" height="20" x="717" y="489" style="fill:black;" font-family="Arial" font-size="16px">nama_dosen</text>
   <rect width="162" height="20" x="712" y="495" style="fill:none;stroke:black;"/>
   <text width="162" height="20" x="717" y="509" style="fill:black;" font-family="Arial" font-size="16px">jabatan_dosen</text>
   <rect width="162" height="20" x="712" y="515" style="fill:none;stroke:black;"/>
   <text width="162" height="20" x="717" y="529" style="fill:black;" font-family="Arial" font-size="16px">id_departemen_dosen</text>
   <rect width="162" height="20" x="712" y="535" style="fill:none;stroke:black;"/>
   <text width="162" height="20" x="717" y="549" style="fill:black;" font-family="Arial" font-size="16px">nik_dosen</text>
   <rect width="162" height="20" x="712" y="555" style="fill:none;stroke:black;"/>
   <text width="162" height="20" x="717" y="569" style="fill:black;" font-family="Arial" font-size="16px">id_prodi_dosen</text>
   <rect width="103" height="20" x="309" y="606" style="fill:#007;stroke:black;"/>
   <text width="103" height="20" x="314" y="620" style="fill:#fff;" font-family="Arial" font-size="16px"> galeriprestasi</text>
   <rect width="103" height="20" x="309" y="626" style="fill:none;stroke:black;"/>
   <text width="103" height="20" x="314" y="640" style="fill:black;" font-family="Arial" font-size="16px">id_galeri</text>
   <rect width="103" height="20" x="309" y="646" style="fill:none;stroke:black;"/>
   <text width="103" height="20" x="314" y="660" style="fill:black;" font-family="Arial" font-size="16px">judul_berita</text>
   <rect width="103" height="20" x="309" y="666" style="fill:none;stroke:black;"/>
   <text width="103" height="20" x="314" y="680" style="fill:black;" font-family="Arial" font-size="16px">foto</text>
   <rect width="103" height="20" x="309" y="686" style="fill:none;stroke:black;"/>
   <text width="103" height="20" x="314" y="700" style="fill:black;" font-family="Arial" font-size="16px">isi_berita</text>
   <rect width="118" height="20" x="128" y="100" style="fill:#007;stroke:black;"/>
   <text width="118" height="20" x="133" y="114" style="fill:#fff;" font-family="Arial" font-size="16px"> jeniskejuaraan</text>
   <rect width="118" height="20" x="128" y="120" style="fill:#aea;stroke:black;"/>
   <text width="118" height="20" x="133" y="134" style="fill:black;" font-family="Arial" font-size="16px">id_jeniskej</text>
   <rect width="118" height="20" x="128" y="140" style="fill:none;stroke:black;"/>
   <text width="118" height="20" x="133" y="154" style="fill:black;" font-family="Arial" font-size="16px">jenis_kejuaraan</text>
   <rect width="118" height="20" x="128" y="160" style="fill:none;stroke:black;"/>
   <text width="118" height="20" x="133" y="174" style="fill:black;" font-family="Arial" font-size="16px">id_bidang</text>
   <rect width="136" height="20" x="129" y="412" style="fill:#007;stroke:black;"/>
   <text width="136" height="20" x="134" y="426" style="fill:#fff;" font-family="Arial" font-size="16px"> jenis_kepesertaan</text>
   <rect width="136" height="20" x="129" y="432" style="fill:#aea;stroke:black;"/>
   <text width="136" height="20" x="134" y="446" style="fill:black;" font-family="Arial" font-size="16px">id_kepesertaan</text>
   <rect width="136" height="20" x="129" y="452" style="fill:none;stroke:black;"/>
   <text width="136" height="20" x="134" y="466" style="fill:black;" font-family="Arial" font-size="16px">jenis_kepesertaan</text>
   <rect width="116" height="20" x="126" y="504" style="fill:#007;stroke:black;"/>
   <text width="116" height="20" x="131" y="518" style="fill:#fff;" font-family="Arial" font-size="16px"> kelompok</text>
   <rect width="116" height="20" x="126" y="524" style="fill:#aea;stroke:black;"/>
   <text width="116" height="20" x="131" y="538" style="fill:black;" font-family="Arial" font-size="16px">id_kelompok</text>
   <rect width="116" height="20" x="126" y="544" style="fill:none;stroke:black;"/>
   <text width="116" height="20" x="131" y="558" style="fill:black;" font-family="Arial" font-size="16px">id_kepesertaan</text>
   <rect width="116" height="20" x="126" y="564" style="fill:none;stroke:black;"/>
   <text width="116" height="20" x="131" y="578" style="fill:black;" font-family="Arial" font-size="16px">nim_anggota</text>
   <rect width="116" height="20" x="126" y="584" style="fill:none;stroke:black;"/>
   <text width="116" height="20" x="131" y="598" style="fill:black;" font-family="Arial" font-size="16px">nama_ketua</text>
   <rect width="116" height="20" x="126" y="604" style="fill:none;stroke:black;"/>
   <text width="116" height="20" x="131" y="618" style="fill:black;" font-family="Arial" font-size="16px">id_mahasiswa</text>
   <rect width="148" height="20" x="699" y="196" style="fill:#007;stroke:black;"/>
   <text width="148" height="20" x="704" y="210" style="fill:#fff;" font-family="Arial" font-size="16px"> mahasiswa</text>
   <rect width="148" height="20" x="699" y="216" style="fill:#aea;stroke:black;"/>
   <text width="148" height="20" x="704" y="230" style="fill:black;" font-family="Arial" font-size="16px">id_mahasiswa</text>
   <rect width="148" height="20" x="699" y="236" style="fill:none;stroke:black;"/>
   <text width="148" height="20" x="704" y="250" style="fill:black;" font-family="Arial" font-size="16px">nama_mahasiswa</text>
   <rect width="148" height="20" x="699" y="256" style="fill:none;stroke:black;"/>
   <text width="148" height="20" x="704" y="270" style="fill:black;" font-family="Arial" font-size="16px">id_prodi_mahasiswa</text>
   <rect width="148" height="20" x="699" y="276" style="fill:none;stroke:black;"/>
   <text width="148" height="20" x="704" y="290" style="fill:black;" font-family="Arial" font-size="16px">nim_mahasiswa</text>
   <rect width="148" height="20" x="699" y="296" style="fill:none;stroke:black;"/>
   <text width="148" height="20" x="704" y="310" style="fill:black;" font-family="Arial" font-size="16px">email_mahasiswa</text>
   <rect width="148" height="20" x="699" y="316" style="fill:none;stroke:black;"/>
   <text width="148" height="20" x="704" y="330" style="fill:black;" font-family="Arial" font-size="16px">password</text>
   <rect width="148" height="20" x="699" y="336" style="fill:none;stroke:black;"/>
   <text width="148" height="20" x="704" y="350" style="fill:black;" font-family="Arial" font-size="16px">id_riwayat_pres</text>
   <rect width="183" height="20" x="369" y="2" style="fill:#007;stroke:black;"/>
   <text width="183" height="20" x="374" y="16" style="fill:#fff;" font-family="Arial" font-size="16px"> prestasimahasiswa</text>
   <rect width="183" height="20" x="369" y="22" style="fill:#aea;stroke:black;"/>
   <text width="183" height="20" x="374" y="36" style="fill:black;" font-family="Arial" font-size="16px">id_prestasi</text>
   <rect width="183" height="20" x="369" y="42" style="fill:none;stroke:black;"/>
   <text width="183" height="20" x="374" y="56" style="fill:black;" font-family="Arial" font-size="16px">id_mahasiswa</text>
   <rect width="183" height="20" x="369" y="62" style="fill:none;stroke:black;"/>
   <text width="183" height="20" x="374" y="76" style="fill:black;" font-family="Arial" font-size="16px">id_bidang</text>
   <rect width="183" height="20" x="369" y="82" style="fill:none;stroke:black;"/>
   <text width="183" height="20" x="374" y="96" style="fill:black;" font-family="Arial" font-size="16px">id_jenis_kejuaraan</text>
   <rect width="183" height="20" x="369" y="102" style="fill:none;stroke:black;"/>
   <text width="183" height="20" x="374" y="116" style="fill:black;" font-family="Arial" font-size="16px">id_tingkat_kejuaraan</text>
   <rect width="183" height="20" x="369" y="122" style="fill:none;stroke:black;"/>
   <text width="183" height="20" x="374" y="136" style="fill:black;" font-family="Arial" font-size="16px">nama_prestasi</text>
   <rect width="183" height="20" x="369" y="142" style="fill:none;stroke:black;"/>
   <text width="183" height="20" x="374" y="156" style="fill:black;" font-family="Arial" font-size="16px">tanggal_pelaksanaan</text>
   <rect width="183" height="20" x="369" y="162" style="fill:none;stroke:black;"/>
   <text width="183" height="20" x="374" y="176" style="fill:black;" font-family="Arial" font-size="16px">lembaga_penyelenggara</text>
   <rect width="183" height="20" x="369" y="182" style="fill:none;stroke:black;"/>
   <text width="183" height="20" x="374" y="196" style="fill:black;" font-family="Arial" font-size="16px">lokasi</text>
   <rect width="183" height="20" x="369" y="202" style="fill:none;stroke:black;"/>
   <text width="183" height="20" x="374" y="216" style="fill:black;" font-family="Arial" font-size="16px">jenis_kepesertaan</text>
   <rect width="183" height="20" x="369" y="222" style="fill:none;stroke:black;"/>
   <text width="183" height="20" x="374" y="236" style="fill:black;" font-family="Arial" font-size="16px">anggota_kelompok</text>
   <rect width="183" height="20" x="369" y="242" style="fill:none;stroke:black;"/>
   <text width="183" height="20" x="374" y="256" style="fill:black;" font-family="Arial" font-size="16px">capaian</text>
   <rect width="183" height="20" x="369" y="262" style="fill:none;stroke:black;"/>
   <text width="183" height="20" x="374" y="276" style="fill:black;" font-family="Arial" font-size="16px">no_surattugas</text>
   <rect width="183" height="20" x="369" y="282" style="fill:none;stroke:black;"/>
   <text width="183" height="20" x="374" y="296" style="fill:black;" font-family="Arial" font-size="16px">id_status</text>
   <rect width="183" height="20" x="369" y="302" style="fill:none;stroke:black;"/>
   <text width="183" height="20" x="374" y="316" style="fill:black;" font-family="Arial" font-size="16px">id_file</text>
   <rect width="95" height="20" x="972" y="329" style="fill:#007;stroke:black;"/>
   <text width="95" height="20" x="977" y="343" style="fill:#fff;" font-family="Arial" font-size="16px"> prodi</text>
   <rect width="95" height="20" x="972" y="349" style="fill:#aea;stroke:black;"/>
   <text width="95" height="20" x="977" y="363" style="fill:black;" font-family="Arial" font-size="16px">id_prodi</text>
   <rect width="95" height="20" x="972" y="369" style="fill:none;stroke:black;"/>
   <text width="95" height="20" x="977" y="383" style="fill:black;" font-family="Arial" font-size="16px">id_dep_prodi</text>
   <rect width="95" height="20" x="972" y="389" style="fill:none;stroke:black;"/>
   <text width="95" height="20" x="977" y="403" style="fill:black;" font-family="Arial" font-size="16px">nama_prodi</text>
   <rect width="121" height="20" x="934" y="199" style="fill:#007;stroke:black;"/>
   <text width="121" height="20" x="939" y="213" style="fill:#fff;" font-family="Arial" font-size="16px"> riwayat_prestasi</text>
   <rect width="121" height="20" x="934" y="219" style="fill:#aea;stroke:black;"/>
   <text width="121" height="20" x="939" y="233" style="fill:black;" font-family="Arial" font-size="16px">id_riwayat_pres</text>
   <rect width="121" height="20" x="934" y="239" style="fill:none;stroke:black;"/>
   <text width="121" height="20" x="939" y="253" style="fill:black;" font-family="Arial" font-size="16px">id_prestasi</text>
   <rect width="121" height="20" x="934" y="259" style="fill:none;stroke:black;"/>
   <text width="121" height="20" x="939" y="273" style="fill:black;" font-family="Arial" font-size="16px">id_mahasiswa</text>
   <rect width="82" height="20" x="466" y="456" style="fill:#007;stroke:black;"/>
   <text width="82" height="20" x="471" y="470" style="fill:#fff;" font-family="Arial" font-size="16px"> savedfiles</text>
   <rect width="82" height="20" x="466" y="476" style="fill:#aea;stroke:black;"/>
   <text width="82" height="20" x="471" y="490" style="fill:black;" font-family="Arial" font-size="16px">id_file</text>
   <rect width="82" height="20" x="466" y="496" style="fill:none;stroke:black;"/>
   <text width="82" height="20" x="471" y="510" style="fill:black;" font-family="Arial" font-size="16px">nama_file</text>
   <rect width="82" height="20" x="466" y="516" style="fill:none;stroke:black;"/>
   <text width="82" height="20" x="471" y="530" style="fill:black;" font-family="Arial" font-size="16px">file_path</text>
   <rect width="70" height="20" x="128" y="318" style="fill:#007;stroke:black;"/>
   <text width="70" height="20" x="133" y="332" style="fill:#fff;" font-family="Arial" font-size="16px"> status</text>
   <rect width="70" height="20" x="128" y="338" style="fill:#aea;stroke:black;"/>
   <text width="70" height="20" x="133" y="352" style="fill:black;" font-family="Arial" font-size="16px">id_status</text>
   <rect width="70" height="20" x="128" y="358" style="fill:none;stroke:black;"/>
   <text width="70" height="20" x="133" y="372" style="fill:black;" font-family="Arial" font-size="16px">status</text>
   <rect width="124" height="20" x="128" y="223" style="fill:#007;stroke:black;"/>
   <text width="124" height="20" x="133" y="237" style="fill:#fff;" font-family="Arial" font-size="16px"> tingkatkejuaraan</text>
   <rect width="124" height="20" x="128" y="243" style="fill:#aea;stroke:black;"/>
   <text width="124" height="20" x="133" y="257" style="fill:black;" font-family="Arial" font-size="16px">id_tingjur</text>
   <rect width="124" height="20" x="128" y="263" style="fill:none;stroke:black;"/>
   <text width="124" height="20" x="133" y="277" style="fill:black;" font-family="Arial" font-size="16px">tingkatan</text>
   <rect width="81" height="20" x="633" y="17" style="fill:#007;stroke:black;"/>
   <text width="81" height="20" x="638" y="31" style="fill:#fff;" font-family="Arial" font-size="16px"> user</text>
   <rect width="81" height="20" x="633" y="37" style="fill:#aea;stroke:black;"/>
   <text width="81" height="20" x="638" y="51" style="fill:black;" font-family="Arial" font-size="16px">id_user</text>
   <rect width="81" height="20" x="633" y="57" style="fill:none;stroke:black;"/>
   <text width="81" height="20" x="638" y="71" style="fill:black;" font-family="Arial" font-size="16px">username</text>
   <rect width="81" height="20" x="633" y="77" style="fill:none;stroke:black;"/>
   <text width="81" height="20" x="638" y="91" style="fill:black;" font-family="Arial" font-size="16px">email</text>
   <rect width="81" height="20" x="633" y="97" style="fill:none;stroke:black;"/>
   <text width="81" height="20" x="638" y="111" style="fill:black;" font-family="Arial" font-size="16px">password</text>
   <rect width="81" height="20" x="633" y="117" style="fill:none;stroke:black;"/>
   <text width="81" height="20" x="638" y="131" style="fill:black;" font-family="Arial" font-size="16px">id_role</text>
   <rect width="82" height="20" x="825" y="17" style="fill:#007;stroke:black;"/>
   <text width="82" height="20" x="830" y="31" style="fill:#fff;" font-family="Arial" font-size="16px"> user_role</text>
   <rect width="82" height="20" x="825" y="37" style="fill:#aea;stroke:black;"/>
   <text width="82" height="20" x="830" y="51" style="fill:black;" font-family="Arial" font-size="16px">id_role</text>
   <rect width="82" height="20" x="825" y="57" style="fill:none;stroke:black;"/>
   <text width="82" height="20" x="830" y="71" style="fill:black;" font-family="Arial" font-size="16px">nama_role</text>
</svg>
